<svg width="190" height="215" fill="red" xmlns="http://www.w3.org/2000/svg"><path d="M121.174 87.245L75.613 149.77l31.02 15.995 11.633-21.326 13.571-14.056 25.204-1.454 8.24-6.301 1.454-11.633-45.561-23.75z" class="light"/><path clip-rule="evenodd" d="M110.892 168.327l-4.912-1.724c7.234-20.83 7.676-26.375 7.684-27.341l-.686-1.789 18.965-10.744h20.486c7.621-.595 10.1-2.722 10.418-9.091l5.194.259c-.567 11.382-8.11 13.49-15.414 14.055l-19.32.006-14.505 8.218c-.448 5.654-4.37 17.961-7.91 28.151z" class="dark"/><path class="flag" clip-rule="evenodd" d="M179.498 13.39l-99.125.589-19.934 23.593 11.827 15.549H54.778L40.1 65.035h41.224v-.1l15.977-14.658-9.137-10.44h63.993l27.34-26.447z"/><path clip-rule="evenodd" d="M39.147 148.243L178.542 11.477 39.146 148.243z" class="light"/><path clip-rule="evenodd" d="M40.887 150.155l-3.65-3.721L176.803 9.564l3.65 3.721-139.566 136.87z" class="dark"/><path clip-rule="evenodd" d="M58.676 98.51l7.811 9.702 2.257 12.22-1.128 4.549-13.84 7.959-5.082-24.728 9.982-9.702z" class="light"/><path clip-rule="evenodd" d="M52.457 108.384l4.126 20.206 9.924-5.744.737-2.984-2.06-11.225-5.7-7.127-7.027 6.874zm.485 28.382l-6.157-30.157 13.168-12.881 10.1 12.631 2.51 13.665-1.55 6.278-18.071 10.464z" class="dark"/><path clip-rule="evenodd" d="M123.167 100.423l2.778 16.258 13.453-13.745" class="light"/><path clip-rule="evenodd" d="M124.958 123.376l-3.701-22.043 5.131-.91 1.979 11.789 10.191-10.604 3.704 3.768-17.304 18z" class="dark"/><path clip-rule="evenodd" d="M64.386 179.804l-8.054 31.562h42.965" class="light"/><path clip-rule="evenodd" d="M98.342 214.235H52.513l8.785-34.431 5.044 1.268-7.143 27.999h39.143v5.164z" class="dark"/><path clip-rule="evenodd" d="M118.207 94.89l5.805 5.969 16.577 2.852 4.066 12.848 13.397-7.828 6.131 14.043 11.235-9.735 2.666-4.161 3.324-5.183V72.959l-48.467-10.31-30.282-.483s-24.75 0-25.915 31.025v34.335l-21.226 20.025-15.621 1.176-36.077-1.241 1.747 10.604c16.427 12.322 35.179 20.192 54.655 21.163l21.004 9.952-4.381 22.16h56.307l.03-3.555c0-6.253-.751-13.743-9.566-14.13h-19.452s6.959-16.481 5.885-22.812c-5.112-30.12-27.352-22.728-27.352-22.728" class="light"/><path clip-rule="evenodd" d="M134.805 214.235H72.837l4.597-23.201-18.676-8.831c-18.855-1.057-38.03-8.511-55.485-21.578L2.435 160 0 145.256l39.055 1.342 14.542-1.092 19.706-18.557V93.863c1.244-33.143 28.205-33.523 28.478-33.523l30.776.535 50.457 10.712v33.509l-6.881 10.519-13.884 12.003-6.364-14.549-13.662 7.967-4.565-14.391-15.824-2.717-6.385-6.551 3.714-3.644 5.207 5.345 17.281 2.967 3.56 11.22 13.093-7.636 5.879 13.437 8.274-7.152 5.361-8.353V75.812l-46.09-9.785-29.99-.478c-.856.008-22.19.48-23.242 28.412l.003 35.244-22.686 21.358-16.653 1.252-32.997-1.133 1.054 6.389c16.558 12.179 34.628 19.072 52.316 19.956l.514.024 23.274 11.005-4.155 20.967h50.489l.009-.959c0-8.226-1.851-11.228-7.069-11.456l-23.236.002 1.531-3.622c2.574-6.084 6.396-17.239 5.708-21.279-1.601-9.432-5.085-15.826-10.351-19-6.472-3.902-13.513-1.636-13.587-1.614l-1.628-4.948c.377-.125 9.398-3.024 17.891 2.095 6.621 3.994 10.929 11.595 12.798 22.589.872 5.128-2.519 15.111-4.6 20.567h15.588c12.151.53 12.151 12.269 12.151 16.687l-.055 6.15z" class="dark"/><path clip-rule="evenodd" d="M164.222 88.946l-2.665-5.684-29.798-7.706" class="light"/><path clip-rule="evenodd" d="M161.378 89.902l-2.144-4.704-28.429-7.562 1.36-4.95 30.813 8.197 3.153 6.924-4.753 2.095z" class="dark"/><path clip-rule="evenodd" d="M101.396 137.38l9.942 14.659 15.458-.516-.983 10.081c11.835.408 14.299-3.496 15.464-12.65l1.94-10.513-23.146-.857-5.372-9.794-25.905-11.109" class="light"/><path clip-rule="evenodd" d="M127.17 164.502c-.515 0-1.044-.008-1.592-.03l-2.77-.091.955-9.638-13.83.454-10.691-15.46 4.291-2.913 9.077 13.126 16.912-.551-.987 9.934c7.853-.255 9.036-3.236 9.926-10.097l1.402-7.456-21.472-.78-5.618-10.046-24.933-10.482 2.032-4.747 26.585 11.178 5.062 9.053 24.562.892-2.482 13.188c-1.199 9.276-4.243 14.466-16.429 14.466z" class="dark"/><path clip-rule="evenodd" d="M100.931 72.687a8.91 8.91 0 00-1.634 5.146c0 5.083 4.273 9.2 9.549 9.2 5.27 0 9.546-4.117 9.546-9.2a8.818 8.818 0 00-.87-3.79l-16.591-1.356z" class="light"/><path clip-rule="evenodd" d="M102.313 75.3a6.648 6.648 0 00-.5 2.54c0 3.768 3.153 6.835 7.033 6.835 3.877 0 7.03-3.067 7.03-6.836a6.4 6.4 0 00-.165-1.434l-13.398-1.104zm6.533 14.602c-6.845 0-12.413-5.41-12.413-12.063 0-2.418.735-4.752 2.126-6.75l.884-1.271 20.035 1.652.654 1.393a11.691 11.691 0 011.125 4.976c0 6.654-5.569 12.063-12.411 12.063z" class="dark"/><path clip-rule="evenodd" d="M41.056 81.018s-4.298-8.033-9.65-10.488c-5.821-2.672-7.887-2.625-7.887-2.625L25.04 73.5l-.906-.485c-4.015-2.151-8.998-.765-11.347 3.156l3.99.945A18.497 18.497 0 0010.8 88.531l-.297 2.304h4.118l.896 21.064 7.776-19.603 4.76-11.278h13.003z" class="light"/><path clip-rule="evenodd" d="M29.385 78.082h6.857c-1.594-2.088-3.654-4.282-5.741-5.233a51.695 51.695 0 00-2.88-1.219l1.764 6.453zM13.843 87.85h3.609l.465 10.882 3.078-7.717 5.483-12.933h1.93l-5.326-2.835a5.782 5.782 0 00-3.804-.586l3.431.81-3.894 3.484a15.673 15.673 0 00-4.972 8.895zm-.275 36.483L12.24 93.297h-4.6l.69-5.365a21.104 21.104 0 013.634-9.397l-3.206-.755 1.93-3.203c2.283-3.795 6.438-5.771 10.618-5.422l-1.102-4.038 3.478-.081c.626.002 3.143.147 9.075 2.856 6.012 2.746 10.431 10.722 10.916 11.622l2.158 4.015H30.076l-4.055 9.56-12.453 31.244z" class="dark"/><path clip-rule="evenodd" d="M73.817 177.25l18.67 5.423.021-.166c.665-4.803-1.854-9.491-6.26-11.661l-.698-.343 3.714-24.753-26.963-13.766-12.652.901 5.541 15.49 19.538 3.003.083 18.599-.994 7.273z" class="light"/><path clip-rule="evenodd" d="M75.628 175.072l12.586 3.765c-.542-2.567-2.174-4.763-4.537-5.958l-2.34-1.19 3.603-24.727-23.848-12.541-8.178.598 3.74 10.772 19.574 3.098.092 20.961-.692 5.222zm17.41 10.471l-2.893-.696-20.2-6.042 1.232-9.292-.07-16.161-18.282-2.893-6.995-20.143 16.34-1.201 28.393 14.935-3.601 24.718c4.641 2.85 7.22 8.243 6.48 13.767l-.404 3.008z" class="dark"/><path clip-rule="evenodd" d="M62.664 89.507c3.389-2.05 3.45-4.781 3.044-8.724l-.052-.502-5.09 2.26c-3.537-5.43-11.305-6.97-16.736-2.296-3.843 3.305-4.756 8.917-2.55 13.481l.016.036c2.316 4.793 7.626 7.613 12.795 6.366a11.188 11.188 0 004.22-2.012l.262.133.273-.585a11.251 11.251 0 003.819-8.157z" class="light"/><path clip-rule="evenodd" d="M51.686 79.798c-2.004 0-3.932.726-5.528 2.097-2.815 2.42-3.582 6.588-1.863 10.14 1.816 3.759 5.861 5.802 9.649 4.892a8.449 8.449 0 003.175-1.51l.398-.341a8.428 8.428 0 002.869-6.121l.038-1.42 1.214-.735c1.204-.729 1.754-1.439 1.88-2.929l-3.566 1.583-1.206-1.854a8.417 8.417 0 00-5.873-3.718 8.333 8.333 0 00-1.187-.084zm.452 22.537c-5.154 0-10.115-3.056-12.509-8.002-2.757-5.706-1.461-12.427 3.14-16.377 3.063-2.634 6.905-3.778 10.836-3.217a13.636 13.636 0 018.112 4.246l6.423-2.85.423 4.05c.398 3.84.436 7.515-3.086 10.273a13.657 13.657 0 01-4.113 8.143l-1.187 2.531-1.29-.65a13.634 13.634 0 01-3.726 1.496c-1 .241-2.017.357-3.023.357z" class="dark"/><path clip-rule="evenodd" d="M52.513 86.076l8.593-4.782-8.593 4.782z" class="light"/><path clip-rule="evenodd" d="M53.78 88.945l-2.221-4.6 8.281-4.007 2.221 4.598-8.282 4.01z" class="dark"/><path clip-rule="evenodd" d="M58.242 109.03c0 4.755-3.85 8.608-8.593 8.608-4.747 0-8.593-3.853-8.593-8.608 0-4.754 3.846-8.607 8.593-8.607 4.743 0 8.593 3.853 8.593 8.607z" class="light"/><path clip-rule="evenodd" d="M49.649 102.847c-3.403 0-6.173 2.774-6.173 6.183 0 3.412 2.77 6.183 6.173 6.183s6.172-2.771 6.172-6.183c0-3.409-2.77-6.183-6.172-6.183zm0 17.66c-6.319 0-11.458-5.148-11.458-11.477 0-6.329 5.14-11.477 11.458-11.477 6.318 0 11.457 5.148 11.457 11.477 0 6.329-5.139 11.477-11.457 11.477z" class="dark"/><path clip-rule="evenodd" d="M53.468 124.876l24.38-8.195 4.263 8.916-24.667 9.256-3.976-9.977z" class="light"/><path clip-rule="evenodd" d="M57.384 126.412l2.014 5.338 19.483-7.72-2.046-4.521-19.451 6.903zm-.905 12.267l-5.876-15.561 28.92-10.262 6.407 14.153-29.451 11.67z" class="dark"/><path clip-rule="evenodd" d="M49.196 137.722l-4.321-25.823 11.667.298 3.61 21.311-10.956 4.214z" class="light"/><path clip-rule="evenodd" d="M48.299 116.209l3.371 18.463 6.354-2.239-2.972-16.066-6.753-.158zm-.697 25.339l-5.591-30.605 17.443.406 4.517 24.431-16.37 5.768z" class="dark"/><path clip-rule="evenodd" d="M79.247 116.794c6.016-5.501 10.097-2.434 11.044 1.526.669 2.806.803 5.625-1.762 6.408l-4.96 1.518-4.322-9.452z" class="light"/><path clip-rule="evenodd" d="M82.686 117.099l2.37 5.494 2.419-.785c.016 0 .34-.692-.242-3.273-.278-1.235-.925-2.171-1.652-2.392-.708-.22-1.734.135-2.895.956zm-.972 12.972l-6.286-14.578 1.518-1.469c4.455-4.32 8.09-4.408 10.366-3.714 2.849.865 5.012 3.433 5.788 6.869 1.595 7.092-1.184 9.586-3.794 10.429l-7.592 2.463zM190.001 0l-15.277 7.566 3.261 3.386.008.008 3.261 3.386L190.001 0zm-72.563 82.07a4.3 4.3 0 01-4.297 4.304 4.3 4.3 0 01-4.296-4.304 4.3 4.3 0 014.296-4.304 4.3 4.3 0 014.297 4.304z" class="dark"/><path clip-rule="evenodd" d="M72.564 151.112l10.502-7.651-10.502 7.651z" class="light"/><path clip-rule="evenodd" d="M74.53 152.068l-2.922-4.224 10.447-7.252 2.92 4.224-10.446 7.252z" class="dark"/><path clip-rule="evenodd" d="M86.885 154.938l-11.457-2.87 11.457 2.87z" class="light"/><path clip-rule="evenodd" d="M85.628 157.807L74.473 154.6l1.26-5.401 11.152 3.207-1.257 5.401z" class="dark"/><path clip-rule="evenodd" d="M50.603 137.722L25.78 160.676l24.824-22.954z" class="light"/><path clip-rule="evenodd" d="M28.377 162.589l-3.552-3.778L48.96 135.81l3.553 3.777-24.136 23.002z" class="dark"/></svg>