<svg width="100" height="100" fill="none" xmlns="http://www.w3.org/2000/svg"><path d="M33.333 100C42.533 100 50 92.533 50 83.333V66.667H33.333c-9.2 0-16.666 7.466-16.666 16.666S24.133 100 33.333 100z" fill="#0ACF83"/><path d="M16.667 50c0-9.2 7.466-16.667 16.666-16.667H50v33.334H33.333c-9.2 0-16.666-7.467-16.666-16.667z" fill="#A259FF"/><path d="M16.667 16.667C16.667 7.467 24.133 0 33.333 0H50v33.333H33.333c-9.2 0-16.666-7.466-16.666-16.666z" fill="#F24E1E"/><path d="M50 0h16.667c9.2 0 16.666 7.467 16.666 16.667 0 9.2-7.466 16.666-16.666 16.666H50V0z" fill="#FF7262"/><path d="M83.333 50c0 9.2-7.466 16.667-16.666 16.667S50 59.2 50 50c0-9.2 7.467-16.667 16.667-16.667 9.2 0 16.666 7.467 16.666 16.667z" fill="#1ABCFE"/></svg>