<svg xmlns="http://www.w3.org/2000/svg" xmlns:xlink="http://www.w3.org/1999/xlink"><symbol id="icon-github" viewBox="0 0 50 50"><path d="M17.791 46.836A1.999 1.999 0 0019 45v-5.4c0-.197.016-.402.041-.61A.611.611 0 0119 39h-3.6c-1.5 0-2.8-.6-3.4-1.8-.7-1.3-1-3.5-2.8-4.7-.3-.2-.1-.5.5-.5.6.1 1.9.9 2.7 2 .9 1.1 1.8 2 3.4 2 2.487 0 3.82-.125 4.622-.555C21.356 34.056 22.649 33 24 33v-.025c-5.668-.182-9.289-2.066-10.975-4.975-3.665.042-6.856.405-8.677.707a21.537 21.537 0 01-.151-.987c1.797-.296 4.843-.647 8.345-.714a8.162 8.162 0 01-.291-.849c-3.511-.178-6.541-.039-8.187.097-.02-.332-.047-.663-.051-.999 1.649-.135 4.597-.27 8.018-.111a9.832 9.832 0 01-.13-1.543c0-1.7.6-3.5 1.7-5-.5-1.7-1.2-5.3.2-6.6 2.7 0 4.6 1.3 5.5 2.1C21 13.4 22.9 13 25 13s4 .4 5.6 1.1c.9-.8 2.8-2.1 5.5-2.1 1.5 1.4.7 5 .2 6.6 1.1 1.5 1.7 3.2 1.6 5 0 .484-.045.951-.11 1.409 3.499-.172 6.527-.034 8.204.102-.002.337-.033.666-.051.999-1.671-.138-4.775-.28-8.359-.089a8.272 8.272 0 01-.325.98c3.546.046 6.665.389 8.548.689-.043.332-.093.661-.151.987-1.912-.306-5.171-.664-8.879-.682-1.665 2.878-5.22 4.755-10.777 4.974V33c2.6 0 5 3.9 5 6.6V45c0 .823.498 1.53 1.209 1.836C41.37 43.804 48 35.164 48 25 48 12.318 37.683 2 25 2S2 12.318 2 25c0 10.164 6.63 18.804 15.791 21.836z"/></symbol><symbol id="icon-mail" viewBox="0 0 50 50"><path d="M0 7v2.781c3.012 2.621 20.29 17.684 21.656 18.875C23.063 29.883 24.465 30 25 30c.535 0 1.938-.117 3.344-1.344C29.762 27.422 48.047 11.48 50 9.781V7zm0 5.438V37.53l15.125-11.937C10.223 21.328 3.23 15.25 0 12.437zm50 0c-3.05 2.656-10.152 8.828-15.125 13.156L50 37.5zm-33.344 14.5L0 40.063V43h50v-2.969L33.344 26.938c-1.938 1.687-3.332 2.91-3.688 3.218C27.738 31.824 25.758 32 25 32c-.758 0-2.738-.172-4.656-1.844-.352-.304-1.746-1.527-3.688-3.218z"/></symbol><symbol id="icon-pin" viewBox="0 0 50 50"><path d="M25 1C16.18 1 9 8.18 9 17c0 14.113 14.629 30.945 15.25 31.656A.99.99 0 0025 49c.309-.02.559-.125.75-.344C26.371 47.934 41 30.813 41 17c0-8.82-7.18-16-16-16zm0 11c3.313 0 6 2.688 6 6 0 3.313-2.688 6-6 6-3.313 0-6-2.688-6-6 0-3.313 2.688-6 6-6z"/></symbol><symbol id="icon-telegram" viewBox="0 0 50 50"><path d="M46.137 6.552c-.75-.636-1.928-.727-3.146-.238h-.002c-1.281.514-36.261 15.518-37.685 16.131-.259.09-2.521.934-2.288 2.814.208 1.695 2.026 2.397 2.248 2.478l8.893 3.045c.59 1.964 2.765 9.21 3.246 10.758.3.965.789 2.233 1.646 2.494.752.29 1.5.025 1.984-.355l5.437-5.043 8.777 6.845.209.125c.596.264 1.167.396 1.712.396.421 0 .825-.079 1.211-.237 1.315-.54 1.841-1.793 1.896-1.935l6.556-34.077c.4-1.82-.156-2.746-.694-3.201zM22 32l-3 8-3-10 23-17-17 19z"/></symbol><symbol id="icon-whatsapp" viewBox="0 0 24 24"><path d="M.057 24l1.687-6.163a11.867 11.867 0 01-1.587-5.946C.16 5.335 5.495 0 12.05 0a11.817 11.817 0 018.413 3.488 11.824 11.824 0 013.48 8.414c-.003 6.557-5.338 11.892-11.893 11.892a11.9 11.9 0 01-5.688-1.448L.057 24zm6.597-3.807c1.676.995 3.276 1.591 5.392 1.592 5.448 0 9.886-4.434 9.889-9.885.002-5.462-4.415-9.89-9.881-9.892-5.452 0-9.887 4.434-9.889 9.884-.001 2.225.651 3.891 1.746 5.634l-.999 3.648 3.742-.981zm11.387-5.464c-.074-.124-.272-.198-.57-.347-.297-.149-1.758-.868-2.031-.967-.272-.099-.47-.149-.669.149-.198.297-.768.967-.941 1.165-.173.198-.347.223-.644.074-.297-.149-1.255-.462-2.39-1.475-.883-.788-1.48-1.761-1.653-2.059-.173-.297-.018-.458.13-.606.134-.133.297-.347.446-.521.151-.172.2-.296.3-.495.099-.198.05-.372-.025-.521-.075-.148-.669-1.611-.916-2.206-.242-.579-.487-.501-.669-.51l-.57-.01c-.198 0-.52.074-.792.372s-1.04 1.016-1.04 2.479 1.065 2.876 1.213 3.074c.149.198 2.095 3.2 5.076 4.487.709.306 1.263.489 1.694.626.712.226 1.36.194 1.872.118.571-.085 1.758-.719 2.006-1.413.248-.695.248-1.29.173-1.414z"/></symbol></svg>