<svg xmlns="http://www.w3.org/2000/svg" viewBox="0 0 50 50"><path d="M0 7v2.781c3.012 2.621 20.29 17.684 21.656 18.875C23.063 29.883 24.465 30 25 30c.535 0 1.938-.117 3.344-1.344C29.762 27.422 48.047 11.48 50 9.781V7zm0 5.438V37.53l15.125-11.937C10.223 21.328 3.23 15.25 0 12.437zm50 0c-3.05 2.656-10.152 8.828-15.125 13.156L50 37.5zm-33.344 14.5L0 40.063V43h50v-2.969L33.344 26.938c-1.938 1.687-3.332 2.91-3.688 3.218C27.738 31.824 25.758 32 25 32c-.758 0-2.738-.172-4.656-1.844-.352-.304-1.746-1.527-3.688-3.218z"/></svg>