<svg width="120" height="27" xmlns="http://www.w3.org/2000/svg"><path d="M40.895.055L33.3 13.761l-1.155 2.592.246-2.342L32.38.055h-5.808V26.98h.021v.017h5.31l7.6-13.984 1.061-2.414-.188 2.164.01 14.234h5.807l-.02-26.94h-5.28zM11.582.054L8.76.06 0 26.995h5.849L11.467 7.74l5.583 19.255h6.115L14.395.055h-2.813zm57.421.001h-16.49V26.98h5.843V6.22h10.647V.055zm16.26 26.941h6.115L82.603.05H79.79l-2.823.005-8.755 26.941h5.844l1.49-5.1h8.237l1.479 5.1zM77.026 16.83l2.655-9.09 2.634 9.09h-5.29zM99.606.022v20.054l9.858 6.83 9.857-6.83V.022H99.606z"/><path class="light" fill="#f2f4f5" d="M115.156 15.36c.193 0 .408-.023.622-.095l-.021 2.23a5.577 5.577 0 01-1.85.328c-1.176-.01-2.06-.46-2.53-1.348-1.134.893-2.457 1.42-4.161 1.41-2.158-.023-4.019-1.31-3.998-3.64.026-2.992 2.791-3.896 5.096-3.874.909.011 1.918.139 2.728.344l.006-.416c.01-1.177-.894-1.992-2.692-2.009-1.584-.017-3 .416-4.082.844l.026-2.941c.935-.311 2.692-.76 4.469-.744 3.455.033 5.645 1.498 5.613 5.371l-.031 3.752c-.011.61.371.782.805.788zm-8.969-1.31c-.011.971.857 1.598 1.965 1.61 1.03.01 2.007-.278 2.859-1.027l.016-2.02c-.554-.139-1.396-.311-2.159-.316-1.343-.017-2.666.432-2.681 1.753z"/></svg>