<svg version="1.1" id="Layer_1" xmlns="http://www.w3.org/2000/svg" x="0" y="0" width="137" height="64.3" xml:space="preserve"><style>.st0{fill:#000}</style><g id="XMLID_4583_"><g id="XMLID_4243_"><path class="st0" d="M60.8 7.8l-11.3 4.8C55.7 6.9 60.1 3.8 63.3 2 52 7.3 40.8 15.2 31.2 25.3 41.5 17.8 49.5 13 60.8 7.8z" id="XMLID_28_"/><path class="st0" d="M114.4 4.3c-13.4 1.4-21.9 3-30.7 5.4.5.7.6 1.8.5 2.9-.1 2.3-.6 5.8-4.5 6.9l-1.1.3 4.1 3.2 1.3 1c3.8.4 16.4-1.2 9.7-2.5-1-.2-1.8-.4-2.4-.7-3.6-1.4-2.8-3.6 3.1-5.8 2.9-1.1 6.3-1.8 7-2 14.9-3.7 22.2-5 24.7-9-3.5-.1-7.5 0-11.7.3z" id="XMLID_27_"/><path class="st0" d="M61.7 14.6c.4-.2.8-.3 1.2-.5 1.5-.7 2.9-1.2 4.4-1.8 6.1-2.3 12-4.2 18-5.6 0-.2.1-.4.1-.7.4-1.6 1.5-2.7 2.7-3.2-3.2.7-6.5 1.6-9.8 2.8-3.9 1.4-7.8 3-11.8 5.1-.1.1-.7.3-1.2.6-.3.1-.5.3-.6.3-.1.1-.3.2-.4.3-1 .4-1.9 1.5-2.6 2.7z" id="XMLID_26_"/></g><g id="XMLID_4101_"><path id="XMLID_53_" class="st0" d="M136.9 44.2H134v-5.5c-2.5.4-4.1 2.2-4.5 4.7-.1.4-.1.8-.1 1.3v8.9c0 .8.1 1.7.3 2.5.9 3.1 4.6 3.7 7.2 2.5v-3.5c-1.8.5-3 .3-3-2.1v-4.8h3.1v-3.9h-.1z"/><path id="XMLID_52_" class="st0" d="M93 44.3v-6c-.9.1-1.8.5-2.4 1-1.1.9-1.9 2.2-2.1 3.8-.1.4-.1.9-.1 1.3v14.2H93v-8.7c.7-2.5 4.3-2.2 4.3.8v7.8h4.6v-8.1c0-5.2-5-7.2-8.9-6.1z"/><path id="XMLID_49_" class="st0" d="M110.1 44c-2.1 0-3.8.7-5.1 2.2-1.3 1.5-1.9 3.2-1.9 5.4s.6 3.9 1.9 5.4c1.3 1.4 3 2.1 5.1 2.1 2 0 3.7-.7 5.1-2.2 1.3-1.4 1.9-3.2 1.9-5.3 0-2.1-.7-3.8-2-5.3-1.2-1.6-2.9-2.3-5-2.3zm-.1 11.1c-1.9 0-2.8-1.9-2.8-3.6 0-1 .2-1.8.7-2.4.5-.7 1.2-1.1 2.2-1.1.9 0 1.6.4 2.1 1.1.4.6.7 1.4.7 2.4.1 1.9-.9 3.6-2.9 3.6z"/><path id="XMLID_48_" class="st0" d="M126.8 51.1c-.5-.4-1.6-.8-3.1-1.4-1.1-.4-1.7-.8-1.7-1.1 0-.6.3-.8 1-.8.6 0 2.4.2 4 1.5l.9-3.6c-.3-.3-1.1-.8-1.6-1-.9-.5-1.9-.7-3-.7-1.5 0-2.8.4-3.8 1.3-1.1.9-1.7 2.1-1.7 3.5 0 .4 0 .9.1 1.2.2.8.9 1.6 2 2.2.3.2 1.3.6 2.8 1.2.8.3 1.2.5 1.4.7.2.1.3.3.3.6 0 .6-.4.7-1.3.7-.7 0-2.7-.4-4.5-1.7l-1.1 3.7c.4.4 1.5 1 2.2 1.3 1 .4 2.2.6 3.4.6 1.5 0 2.8-.4 3.8-1.2 1.1-.9 1.6-2.1 1.6-3.5 0-1.5-.6-2.7-1.7-3.5z"/></g><path id="XMLID_4098_" class="st0" d="M40.4 44c-1.3 0-2.3.4-3.1 1.1v-.9h-4.1v20c1.7 0 4.5-2 4.5-5.3v-.7c.9.5 1.8.7 2.9.7 1.1 0 2.1-.3 3.1-1 2.2-1.5 3.1-3.7 3.1-6.6 0-2-.5-3.6-1.7-5.1-1.2-1.4-2.8-2.2-4.7-2.2zm2.1 9.9c-.5.7-1.2 1.1-2.1 1.1-.9 0-1.7-.3-2.2-1.1-.5-.6-.7-1.4-.7-2.4 0-.9.3-1.7.7-2.4.5-.7 1.3-1.1 2.2-1.1.9 0 1.6.4 2.1 1.1.5.7.7 1.5.7 2.4 0 1-.3 1.7-.7 2.4z"/><path id="XMLID_4097_" class="st0" d="M51.1 45c-1.7 1.1-2.9 3-2.9 5.6v8.1h4.6v-7.6c0-1.5 1.2-2.7 2.7-2.7.5 0 1 .1 1.4.4v-4.4c-2.2-.8-4.3-.4-5.8.6z"/><path id="XMLID_4096_" class="st0" d="M30.3 51.2c-.5-.4-1.6-.8-3.1-1.4-1.1-.4-1.7-.8-1.7-1.1 0-.6.3-.8 1-.8.6 0 2.4.2 4 1.5l.9-3.6c-.3-.3-1.1-.8-1.6-1-.9-.5-1.9-.7-3-.7-1.5 0-2.8.4-3.8 1.3-1.1.9-1.7 2.1-1.7 3.5 0 .4 0 .9.1 1.2.2.8.9 1.6 2 2.2.3.2 1.3.6 2.8 1.2.8.3 1.2.5 1.4.7.2.1.3.3.3.6 0 .6-.4.7-1.3.7-.7 0-2.7-.4-4.5-1.7L21 57.3c.4.4 1.5 1 2.2 1.3 1 .4 2.2.6 3.4.6 1.5 0 2.8-.4 3.8-1.2 1.1-.9 1.6-2.1 1.6-3.5s-.6-2.5-1.7-3.3z"/><path id="XMLID_4095_" class="st0" d="M58.3 44.4h-.2v14.3h4.7V44.4h-.2z"/><circle id="XMLID_4094_" class="st0" cx="60.5" cy="40.8" r="2.8"/><path id="XMLID_4093_" class="st0" d="M83.8 44.2v-5.5c-2.5.4-4.1 2.2-4.5 4.7-.1.4-.1.8-.1 1.3v8.9c0 .8.1 1.7.3 2.5.9 3.1 4.6 3.7 7.2 2.5v-3.5c-1.8.5-3 .3-3-2.1v-4.8h3.1v-3.9h-3z"/><path id="XMLID_4092_" class="st0" d="M64.3 50.6v8.1h4.6v-7.8c0-3.3 4.4-3.4 4.4 0v7.8h4.6v-8.1c-.1-8.8-13.6-8.8-13.6 0z"/><path id="XMLID_4091_" class="st0" d="M52.2 24.4c-7.6 1.8-18.2 7.3-17.6 5.3.5-1.8 10.2-9 24.3-15.8-9 2.6-19.2 7.1-28.7 13.3C16.9 35.9 5 47.6 0 58.1c15.4-16.3 33.2-25.3 52.9-32.5l-.7-1.2z"/><path id="XMLID_4090_" class="st0" d="M66.6 22.7c-.2 0-.4.1-.6.1h.3s.1-.1.3-.1z"/><path id="XMLID_4088_" class="st0" d="M115.5 1.5c-.4 0-.9-.1-1.3-.1h.3c.3 0 .7 0 1 .1z"/><path id="XMLID_4087_" class="st0" d="M98.7 29.1c-.9-.2-1.6-.4-2-.9-.4-.5-.7-1.2-.7-2.1-.1-.9.1-1.9.3-2.9.2-1 .6-2 .9-2.6.2-.3.3-.6.6-.8-2.2.3-4.3.7-6.4 1.2.7.3 1.5.5 2.4.7 6.7 1.3-5.9 2.9-9.7 2.5l-1.3-1c-1.6.5-3.2.9-4.9 1.5-3.9 1.3-3.1 6.6-.4 6.5 8.5-.3 13.5-.7 21.8-1.9-.3-.2-.4-.2-.6-.2z"/><path id="XMLID_4086_" class="st0" d="M106.5 22.9c.3-1.5 0-2.8-.6-3.2-.5-.3-1.2-.3-1.8.8-.3.6-.6 1.4-.8 2.3-.2.9-.3 1.7-.3 2.5.4 4.4 3 .2 3.5-2.4z"/><path id="XMLID_4085_" class="st0" d="M60.9 7.8l4.5 3.3c.5-.2 1.1-.5 1.2-.6 4-2 8-3.7 11.8-5.1C69.8 7.8 67.9 7 67.1 6.8c-2-.5 4.7-5.1 2.4-6.4C69 0 67 .1 63.4 2.1 60.2 3.8 55.7 7 49.6 12.7l11.3-4.9z"/><path id="XMLID_4084_" class="st0" d="M78 20.1h-1.3c-.9 0-1.6-.2-2.1-.6-.5-.4-.8-1.1-1-1.9-.3-1.3-.1-3.3.3-4.7.1-.3.1-.6.2-.9.1-.3.3-.6.6-1-4.1 1.2-8.1 2.6-12.1 4.2-.4.2-.8.3-1.3.5v-.1l.3-.6c.1-.2.1-.3.2-.5.7-1.2 1.6-2.3 2.6-2.9-2.8 1.2-5.1 2.5-5.8 5.2-1 .5-2.1 1-3.2 1.5-3.7 1.8-2 7 .6 6.5l10-2c.2 0 .4-.1.6-.1 2.9-.6 5.7-1.2 9.5-2.1.6-.2 1.2-.4 1.9-.5z"/><path id="XMLID_4083_" class="st0" d="M83.6 12.8c.1-1.2-.2-2.3-.6-2.8-.1-.2-.3-.3-.4-.4-.5-.2-1.2-.1-1.7 1v.1c-.2.6-.4 1.5-.5 2.4-.1.9-.1 1.8.1 2.6.8 4.6 2.9-.1 3.1-2.9z"/><path id="XMLID_4082_" class="st0" d="M93.1 5.4c13-2.2 24.1-2.9 33.5-2.2C115 .8 104 .1 92.4 2c-1.6.3-3.2 1.2-3.7 2.7-.6 1.9.6 1.4 4.4.7z"/></g></svg>