<svg width="100" height="100" fill="none" xmlns="http://www.w3.org/2000/svg"><path d="M15.415 65.115l-5.231 1.91-.279 15.561 18.107-6.615c-6.215-2.081-10.748-5.75-12.597-10.856z" fill="#FDBD39"/><path d="M18.153 48.657L0 55.288 10.184 67.03l5.23-1.911c-1.844-5.09-.706-10.836 2.739-16.462z" fill="#F69833"/><path d="M48.695 26.2c-23.114 8.443-38.017 25.868-33.28 38.915l83.7-30.576c-4.737-13.047-27.306-16.782-50.42-8.34z" fill="#FECF33"/><path d="M65.83 73.458c23.114-8.443 38.042-25.79 33.28-38.915l-83.7 30.572c4.762 13.13 27.307 16.785 50.42 8.343z" fill="#EE6723"/><path d="M99.11 34.539L15.416 65.115c1.637 4.52 7.89 6.747 16.657 6.747 8.55 0 19.494-2.115 30.904-6.282 23.113-8.443 39.372-22.116 36.135-31.041z" fill="#F69833"/><path d="M82.454 27.795c-8.547 0-19.495 2.115-30.904 6.283C28.436 42.52 12.178 56.19 15.415 65.115l83.7-30.576c-1.641-4.52-7.89-6.744-16.661-6.744z" fill="#FDBD39"/><path d="M77.83 83.413c-2.465 0-6.096-2.223-10.8-6.61-5.563-5.19-11.932-12.793-17.944-21.407-6.008-8.613-10.944-17.222-13.902-24.248-3.22-7.653-3.682-12.356-1.367-13.985a3.086 3.086 0 011.82-.536c1.882 0 5.555 1.4 12.34 8.081l.15.146-.022.207a92.58 92.58 0 00-.124 1.442l-.075.943-.665-.669c-7.313-7.366-10.528-8.16-11.575-8.16-.3 0-.536.058-.707.179-1.005.706-1.072 4.163 2.053 11.58 2.904 6.897 7.77 15.377 13.698 23.878 5.934 8.505 12.207 15.992 17.675 21.09 5.892 5.497 8.547 6.091 9.415 6.091.3 0 .54-.062.723-.191 1.06-.744 1.06-4.446-2.422-12.431l-.162-.366.349-.191c.349-.191.69-.378 1.005-.561l.42-.237.195.44c2.468 5.66 4.778 12.852 1.75 14.979a3.102 3.102 0 01-1.829.536zm0-.873v.437-.437z" fill="#EE6723"/><path d="M66.391 73.217l-.033.432c-.586 7.23-2.123 15.921-6.137 16.275-.083.008-.166.008-.245.008-2.726 0-5.306-3.906-7.662-11.605-2.235-7.287-3.968-17.068-4.877-27.543-.914-10.474-.902-20.408.037-27.974 1.022-8.244 2.967-12.548 5.784-12.797.083-.009.17-.013.253-.013 1.978 0 4.957 2.24 8.006 12.668l-1.99.383c-1.018-3.482-2.127-6.316-3.228-8.269-1.018-1.799-2.011-2.792-2.788-2.792-.025 0-.05 0-.079.004-1.221.108-3 3.067-3.989 11.06-.922 7.43-.934 17.219-.033 27.556.902 10.342 2.605 19.977 4.799 27.131.98 3.204 2.057 5.846 3.116 7.637.972 1.654 1.915 2.564 2.651 2.564.025 0 .05 0 .075-.004 1.167-.1 3.37-3.183 4.296-14.023l2.044-.698z" fill="#EE6723"/></svg>