<svg width="114" height="2" fill="none" xmlns="http://www.w3.org/2000/svg"><path fill-rule="evenodd" clip-rule="evenodd" d="M2.036 1.5H0v-1h2.036v1zm8.143 0H6.107v-1h4.072v1zm8.143 0H14.25v-1h4.072v1zm8.142 0h-4.071v-1h4.071v1zm8.143 0h-4.071v-1h4.071v1zm8.143 0h-4.07v-1h4.071v1zm8.143 0H46.82v-1h4.072v1zm8.143 0h-4.072v-1h4.072v1zm8.143 0h-4.072v-1h4.072v1zm8.142 0h-4.07v-1h4.07v1zm8.143 0h-4.071v-1h4.071v1zm8.143 0h-4.071v-1h4.071v1zm8.143 0h-4.07v-1h4.071v1zm8.143 0h-4.072v-1h4.072v1zm6.107 0h-2.036v-1H114v1z" fill="#1fc0fc"/></svg>